<?xml version="1.0" standalone="no"?>
<!DOCTYPE svg PUBLIC "-//W3C//DTD SVG 20010904//EN"
 "http://www.w3.org/TR/2001/REC-SVG-20010904/DTD/svg10.dtd">
<svg version="1.0" xmlns="http://www.w3.org/2000/svg"
 width="260.000000pt" height="260.000000pt" viewBox="0 0 260.000000 260.000000"
 preserveAspectRatio="xMidYMid meet">
<metadata>
Created by potrace 1.11, written by Peter Selinger 2001-2013
</metadata>
<g transform="translate(0.000000,260.000000) scale(0.100000,-0.100000)"
fill="#000000" stroke="none">
<path d="M813 2478 c-15 -4 -41 -9 -56 -10 -16 -1 -31 -6 -33 -10 -3 -5 -9 -6
-14 -3 -10 6 -108 -23 -127 -38 -7 -5 -13 -6 -13 -3 0 4 -10 1 -22 -6 -13 -7
-26 -11 -30 -10 -5 1 -8 -3 -8 -8 0 -5 -6 -10 -13 -10 -15 0 -119 -65 -162
-101 -41 -35 -137 -136 -136 -143 1 -4 -10 -19 -24 -34 -14 -15 -28 -36 -31
-47 -4 -11 -10 -22 -14 -25 -17 -12 -94 -199 -85 -208 2 -2 0 -12 -5 -22 -5
-9 -12 -32 -16 -51 -10 -48 -11 -299 -2 -299 5 0 8 -13 8 -30 0 -16 4 -30 10
-30 5 0 7 -6 4 -13 -3 -8 1 -27 7 -43 7 -16 14 -40 16 -54 2 -13 10 -28 16
-32 7 -4 9 -8 4 -8 -4 0 -1 -13 8 -30 8 -16 15 -32 15 -35 0 -3 16 -35 36 -72
20 -36 42 -76 48 -87 6 -12 26 -42 44 -68 17 -26 32 -51 32 -57 0 -6 4 -11 8
-11 4 0 15 -12 24 -28 9 -15 33 -45 52 -67 20 -22 36 -43 36 -47 0 -4 16 -23
35 -43 20 -19 34 -35 31 -35 -3 0 18 -23 45 -51 27 -28 49 -54 49 -59 0 -5 4
-10 9 -12 19 -7 213 -200 206 -206 -3 -3 -10 0 -14 7 -6 8 -14 10 -22 5 -13
-8 -65 -15 -116 -16 -13 0 -23 -4 -23 -8 0 -4 -16 -7 -35 -6 -19 1 -37 -4 -39
-11 -3 -6 -14 -9 -25 -6 -13 3 -21 1 -21 -8 0 -7 -3 -9 -7 -6 -11 12 -53 -35
-53 -58 0 -18 39 -68 44 -57 0 2 15 -2 31 -9 17 -7 36 -11 43 -10 6 1 12 -2
12 -6 0 -4 10 -9 23 -10 81 -5 113 -9 122 -14 11 -6 415 -2 485 5 25 2 57 9
73 15 20 8 27 8 27 -2 0 -8 3 -8 9 2 7 10 19 12 47 6 62 -13 77 -15 119 -18
22 -1 45 -5 50 -8 6 -3 105 -4 220 -2 277 4 315 6 315 17 0 4 6 6 14 3 8 -3
17 -3 20 1 4 3 14 7 22 8 9 1 23 6 32 10 9 4 19 8 22 9 32 8 49 18 45 25 -3 4
2 11 10 14 14 5 14 9 1 34 -18 36 -39 53 -65 55 -12 1 -21 6 -21 11 0 5 -3 7
-6 3 -3 -3 -18 -1 -33 5 -14 6 -40 10 -58 9 -18 0 -35 4 -38 9 -4 6 -20 8 -37
5 -20 -4 -37 0 -48 10 -17 16 -11 23 98 134 65 64 135 139 157 165 22 26 52
61 66 76 14 15 46 56 70 91 24 35 47 66 50 69 9 8 69 98 69 104 0 3 14 25 30
49 17 25 30 50 30 56 0 6 5 11 12 11 6 0 9 3 5 6 -3 3 8 31 24 61 16 30 27 58
24 64 -4 5 -2 9 3 9 12 0 53 138 55 187 1 12 4 20 8 17 6 -3 5 294 -1 306 -1
3 -3 10 -5 15 -1 6 -3 12 -4 15 -1 3 -4 21 -7 39 -2 19 -8 37 -12 40 -4 4 -7
11 -7 16 0 12 -47 128 -54 135 -4 3 -15 22 -26 43 -11 20 -23 37 -27 37 -3 0
-9 8 -13 19 -12 38 -204 220 -232 221 -7 0 -13 4 -13 9 0 5 -26 21 -57 37 -32
15 -61 32 -65 38 -4 6 -8 8 -8 4 0 -4 -32 4 -71 18 -38 13 -90 27 -114 30 -58
7 -87 12 -93 19 -3 2 -11 0 -19 -6 -7 -6 -13 -7 -13 -3 0 19 -197 -2 -300 -31
-3 -1 -18 -5 -33 -10 -19 -5 -26 -12 -23 -22 3 -8 6 -17 6 -19 0 -2 7 -4 15
-4 8 0 15 -3 15 -8 0 -4 18 -18 40 -32 22 -14 40 -28 40 -33 0 -4 5 -5 10 -2
6 3 10 2 10 -3 0 -5 32 -41 70 -81 39 -39 70 -75 70 -80 0 -5 15 -8 33 -7 17
2 42 -1 55 -5 12 -5 22 -5 22 0 0 5 21 2 48 -6 26 -8 52 -16 58 -17 7 -1 19
-8 28 -15 9 -7 16 -11 16 -7 0 3 23 -6 51 -21 67 -37 204 -169 211 -205 2 -7
9 -19 16 -26 7 -8 10 -18 7 -23 -4 -5 -2 -9 2 -9 7 0 22 -39 41 -110 7 -23 6
-202 -1 -230 -3 -14 -8 -35 -11 -47 -15 -68 -86 -180 -157 -248 -28 -27 -54
-50 -58 -50 -3 -1 -24 -12 -46 -26 -31 -20 -120 -58 -120 -51 0 1 -20 -4 -45
-12 -51 -15 -245 -12 -245 4 0 1 -11 3 -24 6 -33 6 -149 62 -170 82 -9 10 -29
26 -43 36 -15 11 -44 43 -65 70 -21 28 -42 54 -48 58 -7 5 -7 8 0 8 6 0 6 3
-1 8 -12 8 -52 100 -58 134 -3 13 -5 23 -6 23 -1 0 -4 18 -7 40 -9 87 -2 200
16 233 5 9 9 19 9 22 0 3 5 18 11 33 6 16 11 33 11 38 0 5 5 9 10 9 6 0 10 6
10 13 0 6 9 23 20 37 11 14 20 30 20 37 0 19 -63 78 -98 92 -18 8 -32 17 -32
22 0 5 -11 9 -24 9 -14 0 -28 5 -31 10 -3 6 -17 10 -31 10 -14 0 -34 5 -44 10
-16 9 -25 5 -47 -17 -16 -16 -29 -35 -31 -43 -2 -8 -9 -18 -15 -22 -7 -4 -9
-8 -4 -8 4 0 -4 -22 -17 -49 -14 -27 -22 -51 -19 -55 4 -3 0 -6 -7 -6 -7 0
-11 -3 -8 -6 4 -3 2 -20 -3 -37 -26 -84 -31 -126 -31 -247 0 -105 9 -186 23
-212 5 -10 8 -18 5 -18 -8 0 50 -153 78 -211 14 -28 26 -57 26 -65 0 -8 3 -14
8 -14 4 0 16 -17 27 -38 11 -20 22 -39 25 -42 3 -3 25 -35 48 -72 24 -37 52
-77 63 -89 10 -12 19 -25 19 -28 0 -4 16 -23 36 -44 20 -20 34 -37 30 -37 -6
0 58 -71 157 -174 31 -33 57 -61 57 -63 0 -1 20 -21 45 -44 29 -27 45 -50 45
-65 0 -13 5 -24 12 -24 24 0 -2 -12 -34 -15 -34 -4 -67 -9 -128 -21 -44 -8
-58 -8 -95 0 -16 4 -48 8 -70 11 -54 5 -118 16 -127 21 -4 2 -9 0 -13 -6 -3
-6 -38 -37 -76 -70 l-70 -61 -32 23 c-18 12 -42 33 -54 45 -13 12 -30 26 -39
31 -9 5 -14 14 -10 20 4 7 22 -4 46 -28 21 -21 52 -46 68 -54 27 -14 30 -14
49 7 12 12 30 29 41 37 95 72 281 256 278 275 -1 8 -25 40 -53 72 -28 32 -52
61 -52 65 -1 5 -15 21 -31 37 -17 15 -30 33 -30 39 0 6 -4 12 -8 14 -5 2 -39
48 -75 103 -37 55 -73 107 -79 117 -8 12 -17 14 -35 7 -15 -5 -23 -5 -23 2 0
6 -4 8 -9 4 -6 -3 -29 -1 -53 5 -24 6 -52 13 -63 15 -11 3 -29 9 -40 14 -11 5
-35 15 -52 23 -18 7 -33 16 -33 20 0 5 -6 8 -12 8 -7 0 -30 15 -50 34 -20 19
-39 31 -42 28 -3 -3 -6 3 -6 13 0 10 -3 15 -6 12 -9 -9 -86 100 -106 150 -14
34 -18 44 -28 75 -1 4 -8 29 -16 54 -8 26 -12 49 -9 52 2 3 0 13 -5 23 -6 10
-6 20 -2 23 4 3 7 24 6 48 -1 24 2 48 6 53 4 6 8 17 8 25 1 25 9 52 30 102 11
25 18 49 15 52 -4 3 -2 6 4 6 6 0 22 18 37 40 32 49 136 150 153 150 7 0 13 4
13 10 0 5 11 12 25 16 14 3 25 10 25 15 0 5 3 8 8 7 4 -1 21 4 37 11 17 7 38
14 48 16 10 2 27 7 38 10 25 8 188 13 194 6 3 -2 15 -6 28 -7 31 -3 50 -8 65
-17 6 -5 12 -5 12 -2 0 3 10 -1 22 -9 12 -9 29 -16 36 -16 42 0 204 -147 236
-214 9 -20 21 -36 27 -36 6 0 7 -5 4 -10 -4 -6 -2 -16 3 -23 11 -15 40 -104
41 -132 8 -115 0 -220 -17 -252 -7 -13 -10 -23 -6 -23 3 0 2 -6 -4 -12 -6 -7
-11 -17 -12 -23 -5 -23 -15 -42 -42 -82 -28 -42 -29 -43 -11 -68 10 -13 24
-25 31 -25 6 0 12 -4 12 -8 0 -5 12 -15 28 -23 15 -8 33 -20 40 -27 8 -7 17
-10 22 -7 5 3 10 1 12 -4 1 -5 32 -15 68 -23 70 -16 75 -14 99 30 6 12 8 22 4
22 -4 0 -3 4 2 8 13 9 45 78 45 97 0 7 6 20 13 27 12 14 17 28 21 63 2 11 6
29 9 40 9 32 19 97 20 133 1 17 4 32 7 32 3 0 6 18 6 40 -1 22 -3 40 -6 40 -3
0 -6 15 -6 33 -2 34 -11 99 -19 132 -16 68 -31 111 -40 117 -5 4 -6 8 -1 8 5
0 3 6 -3 13 -6 8 -8 17 -4 20 3 4 1 7 -5 7 -7 0 -12 7 -12 15 0 17 -47 96 -64
107 -6 5 -7 8 -1 8 7 0 7 3 0 8 -6 4 -23 24 -38 45 -37 49 -121 130 -172 165
-22 15 -42 29 -45 32 -16 16 -143 79 -170 84 -3 1 -11 5 -17 9 -7 5 -13 6 -13
2 0 -3 -13 1 -29 9 -16 9 -31 12 -35 9 -3 -4 -6 -1 -6 6 0 8 -5 9 -19 2 -10
-6 -21 -7 -25 -4 -8 8 -41 15 -78 17 -16 0 -28 4 -28 8 0 4 -11 3 -24 -2 -13
-5 -26 -6 -29 -3 -9 8 -74 9 -104 1z m862 -2226 c-3 -3 -11 0 -18 7 -9 10 -8
11 6 5 10 -3 15 -9 12 -12z m49 -23 c-6 -11 -31 -12 -37 -1 -3 4 6 8 19 8 13
1 21 -2 18 -7z"/>
</g>
</svg>
